# xmcd CD database file
#
# Track frame offsets:
#	150
#	28814
#	48885
#	75182
#	92982
#	115344
#	133460
#	149624
#	173194
#	200406
#	219435
#	240842
#
# Disc length: 3557 seconds
#
# Revision: 3
# Processed by: cddbd v1.5.2PL0 Copyright (c) Steve Scherf et al.
# Submitted via: CDex 1.70beta2
#
DISCID=a60de30c
DTITLE=European Jazz Trio - ジャパネスク~日本の詩情
DYEAR=2009
DGENRE=Jazz
TTITLE0=見上げてごらん夜の星を
TTITLE1=花
TTITLE2=与作
TTITLE3=赤とんぼ 
TTITLE4=いとしのエリー 
TTITLE5=千の風になって 
TTITLE6=いい日旅立ち 
TTITLE7=秋桜 
TTITLE8=翼をください 
TTITLE9=涙そうそう 
TTITLE10=浜辺の歌
TTITLE11=川の流れのように 
EXTD=YEAR: 2009
EXTT0=
EXTT1=
EXTT2=
EXTT3=
EXTT4=
EXTT5=
EXTT6=
EXTT7=
EXTT8=
EXTT9=
EXTT10=
EXTT11=
PLAYORDER=
